<?xml version="1.0" encoding="utf-8"?>
<!-- Generator: Adobe Illustrator 23.0.4, SVG Export Plug-In . SVG Version: 6.00 Build 0)  -->
<svg version="1.1" id="Layer_1" xmlns="http://www.w3.org/2000/svg" xmlns:xlink="http://www.w3.org/1999/xlink" x="0px" y="0px"
	 viewBox="0 0 56.7 67.8" style="enable-background:new 0 0 56.7 67.8;" xml:space="preserve">
<style type="text/css">
	.st0{fill:#F1646D;}
	.st1{fill:#41B49F;}
	.st2{fill:#202F53;}
	.st3{fill:#202F53;}

	@media (prefers-color-scheme: dark) {
		.st0{fill:#087489;}
		.st1{fill:#087489;}
		.st2{fill:#F1646D;}
		.st3{fill:#41B49F;}
	}
</style>
<path class="st0" d="M42.4,39.7l-6.7-8.6C35.6,31,23.7,16,19.3,10.5H4.6V2.9h18.3L24,4.3c1.7,2,6.7,8.3,10.9,13.6v-15h21.8v7.6H42.4
	V39.7z"/>
<path class="st1" d="M56.7,67.9H38.4l-1.1-1.4c-1.7-2-6.7-8.3-10.9-13.6v15H4.6v-7.6h14.3V31.1l6.7,8.6c0.1,0.2,12,15.2,16.4,20.7
	h14.7V67.9L56.7,67.9z"/>
<path class="st2" d="M37.8,36.8l-6.7-8.6C31,28,19.1,13,14.7,7.5H0V0h18.3c0,0,7.8,9.6,12,15V0h21.8v7.6H37.8V36.8z"/>
<path class="st3" d="M52.1,65H33.8c0,0-7.8-9.7-12-15v15H0v-7.6h14.3V28.2c0,0,18.7,23.7,23.2,29.2h14.7V65H52.1z"/>
</svg>
